<svg width="28" height="28" viewBox="0 0 28 28" fill="none" xmlns="http://www.w3.org/2000/svg">
<path d="M14.8571 12H20L19.4286 14H14.8571V23H12.5714V14H8V12H12.5714V10.1278C12.5714 8.34473 12.7837 7.69816 13.1821 7.04631C13.5805 6.39446 14.1651 5.88288 14.9101 5.53427C15.6551 5.18565 16.3939 5 18.4318 5C19.0283 5 19.5511 5.05 20 5.15V7H18.4318C16.919 7 16.4583 7.07784 15.988 7.29789C15.6414 7.46011 15.383 7.68619 15.1976 7.98951C14.9461 8.40096 14.8571 8.80407 14.8571 10.1278V12Z" fill="white"/>
</svg>
