<svg width="28" height="28" viewBox="0 0 28 28" fill="none" xmlns="http://www.w3.org/2000/svg">
<path d="M14 11.3C12.5084 11.3 11.3 12.5088 11.3 14C11.3 15.4916 12.5088 16.7 14 16.7C15.4916 16.7 16.7 15.4912 16.7 14C16.7 12.5084 15.4912 11.3 14 11.3ZM14 9.5C16.4844 9.5 18.5 11.5134 18.5 14C18.5 16.4844 16.4866 18.5 14 18.5C11.5156 18.5 9.5 16.4866 9.5 14C9.5 11.5156 11.5134 9.5 14 9.5ZM19.85 9.27423C19.85 9.89533 19.3453 10.3993 18.725 10.3993C18.1039 10.3993 17.6 9.89456 17.6 9.27423C17.6 8.65391 18.1046 8.15 18.725 8.15C19.3445 8.14922 19.85 8.65391 19.85 9.27423ZM14 6.8C11.773 6.8 11.41 6.80589 10.3742 6.85202C9.66845 6.88515 9.19539 6.98006 8.75586 7.1507C8.36526 7.30219 8.0835 7.48308 7.78328 7.78329C7.48192 8.08466 7.30135 8.36567 7.15048 8.75645C6.97944 9.19699 6.88455 9.6693 6.85202 10.374C6.80544 11.3677 6.8 11.7149 6.8 14C6.8 16.227 6.80589 16.59 6.85201 17.6257C6.88516 18.3312 6.9802 18.8049 7.15042 19.2434C7.30231 19.6345 7.48357 19.917 7.78233 20.2158C8.08488 20.5179 8.36673 20.6991 8.7538 20.8485C9.19869 21.0204 9.67145 21.1155 10.374 21.148C11.3677 21.1945 11.7149 21.2 14 21.2C16.2271 21.2 16.59 21.1941 17.6257 21.148C18.3296 21.115 18.8038 21.0196 19.2434 20.8495C19.6335 20.6981 19.9168 20.5162 20.2158 20.2177C20.5183 19.9146 20.6992 19.6335 20.8487 19.2455C21.0203 18.8022 21.1155 18.3288 21.148 17.626C21.1945 16.6323 21.2 16.285 21.2 14C21.2 11.773 21.1941 11.41 21.148 10.3742C21.1149 9.67015 21.0196 9.19534 20.8493 8.75586C20.6982 8.36634 20.5166 8.08371 20.2167 7.78329C19.9148 7.48143 19.6345 7.30124 19.2435 7.15048C18.8033 6.97959 18.3303 6.88456 17.6259 6.85203C16.6323 6.80544 16.285 6.8 14 6.8ZM14 5C16.4449 5 16.7502 5.009 17.7103 5.054C18.6679 5.09825 19.3213 5.24975 19.895 5.4725C20.4882 5.70125 20.9892 6.01025 21.4894 6.5105C21.9889 7.01075 22.298 7.51325 22.5275 8.105C22.7494 8.678 22.901 9.332 22.946 10.2898C22.9888 11.2498 23 11.555 23 14C23 16.445 22.991 16.7502 22.946 17.7102C22.9017 18.668 22.7494 19.3212 22.5275 19.895C22.2987 20.4883 21.9889 20.9892 21.4894 21.4895C20.9892 21.989 20.4859 22.298 19.895 22.5275C19.3213 22.7495 18.6679 22.901 17.7103 22.946C16.7502 22.9888 16.4449 23 14 23C11.555 23 11.2497 22.991 10.2897 22.946C9.33199 22.9017 8.67949 22.7495 8.105 22.5275C7.51249 22.2987 7.01074 21.989 6.5105 21.4895C6.01025 20.9892 5.702 20.486 5.4725 19.895C5.24975 19.3212 5.099 18.668 5.054 17.7102C5.01125 16.7502 5 16.445 5 14C5 11.555 5.009 11.2498 5.054 10.2898C5.09824 9.33125 5.24975 8.67875 5.4725 8.105C5.70124 7.5125 6.01025 7.01075 6.5105 6.5105C7.01074 6.01025 7.51325 5.702 8.105 5.4725C8.67875 5.24975 9.33125 5.099 10.2897 5.054C11.2497 5.01125 11.555 5 14 5Z" fill="white"/>
</svg>
