<svg width="30" height="30" viewBox="0 0 30 30" fill="none" xmlns="http://www.w3.org/2000/svg">
<path d="M15.0012 5.66066C17.9375 3.025 22.475 3.1125 25.3032 5.9467C28.1316 8.7809 28.2288 13.2963 25.5982 16.2413L14.9999 26.8563L4.40172 16.2413C1.77131 13.2963 1.86964 8.77376 4.6967 5.9467C7.52696 3.11644 12.0565 3.02109 15.0012 5.66066ZM23.5337 7.71263C21.6599 5.83493 18.6345 5.75876 16.6712 7.52109L15.0024 9.01905L13.3326 7.52226C11.3637 5.75746 8.34382 5.8351 6.46446 7.71446C4.60229 9.57664 4.5088 12.5591 6.22491 14.529L14.9999 23.3179L23.7751 14.529C25.4919 12.5584 25.3988 9.58156 23.5337 7.71263Z" fill="black"/>
</svg>
