<svg width="36" height="36" viewBox="0 0 36 36" fill="none" xmlns="http://www.w3.org/2000/svg">
<path d="M28.875 30.375L24.0625 25.5625M23.375 15.25C23.375 16.514 23.126 17.7656 22.6423 18.9333C22.1586 20.1011 21.4497 21.1621 20.5559 22.0559C19.6621 22.9497 18.6011 23.6586 17.4333 24.1423C16.2656 24.626 15.014 24.875 13.75 24.875C12.486 24.875 11.2344 24.626 10.0667 24.1423C8.89891 23.6586 7.83786 22.9497 6.9441 22.0559C6.05033 21.1621 5.34136 20.1011 4.85766 18.9333C4.37396 17.7656 4.125 16.514 4.125 15.25C4.125 12.6973 5.13906 10.2491 6.9441 8.4441C8.74913 6.63906 11.1973 5.625 13.75 5.625C16.3027 5.625 18.7509 6.63906 20.5559 8.4441C22.3609 10.2491 23.375 12.6973 23.375 15.25Z" stroke="#333333" stroke-width="2.75" stroke-linecap="round"/>
</svg>
