<svg width="36" height="36" viewBox="0 0 36 36" fill="none" xmlns="http://www.w3.org/2000/svg">
<path d="M12.75 28.5C12.305 28.5 11.87 28.632 11.5 28.8792C11.13 29.1264 10.8416 29.4778 10.6713 29.889C10.501 30.3001 10.4564 30.7525 10.5432 31.189C10.63 31.6254 10.8443 32.0263 11.159 32.341C11.4737 32.6557 11.8746 32.8699 12.311 32.9568C12.7475 33.0436 13.1999 32.999 13.611 32.8287C14.0222 32.6584 14.3736 32.37 14.6208 32C14.868 31.63 15 31.195 15 30.75C15 30.1533 14.7629 29.581 14.341 29.159C13.919 28.7371 13.3467 28.5 12.75 28.5ZM28.5 24H10.5C10.1022 24 9.72064 23.842 9.43934 23.5607C9.15804 23.2794 9 22.8978 9 22.5C9 22.1022 9.15804 21.7206 9.43934 21.4393C9.72064 21.158 10.1022 21 10.5 21H23.2365C24.2139 20.9977 25.1642 20.6782 25.9446 20.0897C26.7249 19.5011 27.2932 18.6752 27.564 17.736L29.9415 9.411C30.0051 9.18789 30.016 8.95308 29.9735 8.72503C29.931 8.49698 29.8361 8.2819 29.6964 8.09669C29.5567 7.91149 29.376 7.76122 29.1684 7.65768C28.9608 7.55414 28.732 7.50017 28.5 7.5H10.11C9.79865 6.62588 9.22555 5.86892 8.46867 5.33213C7.71179 4.79534 6.8079 4.50478 5.88 4.5H4.5C4.10218 4.5 3.72064 4.65804 3.43934 4.93934C3.15804 5.22064 3 5.60218 3 6C3 6.39782 3.15804 6.77936 3.43934 7.06066C3.72064 7.34196 4.10218 7.5 4.5 7.5H5.8815C6.20723 7.50104 6.52386 7.60755 6.78399 7.8036C7.04412 7.99964 7.23375 8.27467 7.3245 8.5875L7.557 9.405V9.4125L10.0185 18.0255C8.87275 18.148 7.81764 18.7053 7.07063 19.5827C6.32361 20.46 5.9416 21.5905 6.00334 22.7411C6.06507 23.8917 6.56584 24.9748 7.40244 25.7672C8.23904 26.5595 9.34772 27.0008 10.5 27H28.5C28.8978 27 29.2794 26.842 29.5607 26.5607C29.842 26.2794 30 25.8978 30 25.5C30 25.1022 29.842 24.7206 29.5607 24.4393C29.2794 24.158 28.8978 24 28.5 24ZM26.511 10.5L24.681 16.911C24.5905 17.2244 24.4007 17.4999 24.1403 17.6962C23.8798 17.8926 23.5627 17.9992 23.2365 18H13.131L12.7485 16.662L10.989 10.5H26.511ZM24.75 28.5C24.305 28.5 23.87 28.632 23.5 28.8792C23.13 29.1264 22.8416 29.4778 22.6713 29.889C22.501 30.3001 22.4564 30.7525 22.5432 31.189C22.63 31.6254 22.8443 32.0263 23.159 32.341C23.4737 32.6557 23.8746 32.8699 24.311 32.9568C24.7475 33.0436 25.1999 32.999 25.611 32.8287C26.0222 32.6584 26.3736 32.37 26.6208 32C26.868 31.63 27 31.195 27 30.75C27 30.1533 26.7629 29.581 26.341 29.159C25.919 28.7371 25.3467 28.5 24.75 28.5Z" fill="white"/>
</svg>
