<svg width="36" height="36" viewBox="0 0 36 36" fill="none" xmlns="http://www.w3.org/2000/svg">
<path d="M18.0015 6.7928C21.525 3.63 26.97 3.735 30.3639 7.13604C33.7579 10.5371 33.8745 15.9555 30.7179 19.4895L17.9998 32.2275L5.28207 19.4895C2.12557 15.9555 2.24356 10.5285 5.63604 7.13604C9.03235 3.73973 14.4678 3.62531 18.0015 6.7928ZM28.2405 9.25515C25.9918 7.00191 22.3614 6.91052 20.0055 9.02531L18.0028 10.8229L15.9991 9.02672C13.6365 6.90896 10.0126 7.00212 7.75735 9.25736C5.52274 11.492 5.41056 15.071 7.46989 17.4348L17.9998 27.9815L28.5301 17.4348C30.5902 15.0701 30.4785 11.4979 28.2405 9.25515Z" fill="#333333"/>
</svg>
