<svg width="23" height="23" viewBox="0 0 23 23" fill="none" xmlns="http://www.w3.org/2000/svg">
<path d="M11.3294 4.93185C13.4273 3.04871 16.6693 3.11123 18.69 5.13622C20.7108 7.1612 20.7802 10.3873 18.9008 12.4915L11.3284 20.0757L3.75621 12.4915C1.87682 10.3873 1.94708 7.1561 3.96696 5.13622C5.98914 3.11404 9.22541 3.04592 11.3294 4.93185ZM17.4257 6.39794C16.0869 5.05636 13.9253 5.00194 12.5226 6.26109L11.3302 7.33136L10.1372 6.26193C8.73044 5.00101 6.57277 5.05648 5.23 6.39925C3.89951 7.72974 3.83271 9.86068 5.05885 11.2681L11.3284 17.5476L17.5982 11.2681C18.8248 9.86014 18.7582 7.73326 17.4257 6.39794Z" fill="black"/>
</svg>
