<svg width="28" height="28" viewBox="0 0 28 28" fill="none" xmlns="http://www.w3.org/2000/svg">
<path d="M21.6059 8.99482C21.5297 8.69695 21.3142 8.47221 21.0674 8.40288C20.6289 8.28062 18.5 8 14 8C9.5 8 7.37154 8.28073 6.93127 8.40323C6.68678 8.47123 6.47132 8.69593 6.39412 8.99482C6.28532 9.41923 6 11.196 6 14C6 16.804 6.28532 18.5808 6.39442 19.0064C6.47028 19.3031 6.68578 19.5278 6.93153 19.5968C7.37154 19.7193 9.5 20 14 20C18.5 20 20.6289 19.7194 21.0687 19.5968C21.3132 19.5288 21.5287 19.3041 21.6059 19.0052C21.7147 18.5808 22 16.8 22 14C22 11.2 21.7147 9.41923 21.6059 8.99482ZM23.5432 8.49818C24 10.28 24 14 24 14C24 14 24 17.72 23.5432 19.5018C23.2887 20.4873 22.546 21.2618 21.6046 21.5236C19.8961 22 14 22 14 22C14 22 8.10739 22 6.39539 21.5236C5.45048 21.2582 4.70781 20.4836 4.45676 19.5018C4 17.72 4 14 4 14C4 14 4 10.28 4.45676 8.49818C4.71129 7.51273 5.45397 6.73818 6.39539 6.47636C8.10739 6 14 6 14 6C14 6 19.8961 6 21.6046 6.47636C22.5495 6.74182 23.2922 7.51636 23.5432 8.49818ZM12 17.5V10.5L18 14L12 17.5Z" fill="white"/>
</svg>
